<?xml version="1.0" encoding="UTF-8" standalone="no"?>
<!-- Uploaded to: SVG Repo, www.svgrepo.com, Generator: SVG Repo Mixer Tools -->

<svg
   height="800px"
   width="800px"
   version="1.1"
   id="Layer_1"
   viewBox="0 0 512 512"
   xml:space="preserve"
   sodipodi:docname="down_arrow.svg"
   inkscape:version="1.4.2 (ebf0e940d0, 2025-05-08)"
   xmlns:inkscape="http://www.inkscape.org/namespaces/inkscape"
   xmlns:sodipodi="http://sodipodi.sourceforge.net/DTD/sodipodi-0.dtd"
   xmlns="http://www.w3.org/2000/svg"
   xmlns:svg="http://www.w3.org/2000/svg"><defs
   id="defs4" /><sodipodi:namedview
   id="namedview4"
   pagecolor="#ffffff"
   bordercolor="#000000"
   borderopacity="0.25"
   inkscape:showpageshadow="2"
   inkscape:pageopacity="0.0"
   inkscape:pagecheckerboard="0"
   inkscape:deskcolor="#d1d1d1"
   inkscape:zoom="1.05375"
   inkscape:cx="400"
   inkscape:cy="400"
   inkscape:window-width="2560"
   inkscape:window-height="1052"
   inkscape:window-x="0"
   inkscape:window-y="0"
   inkscape:window-maximized="1"
   inkscape:current-layer="Layer_1" />
<path
   style="fill:#8aff93;fill-opacity:1"
   d="M472.573,250.238c-13.664-13.664-35.818-13.664-49.482,0L290.989,382.34V45.189  c0-19.324-15.665-34.989-34.989-34.989c-19.324,0-34.989,15.665-34.989,34.989V382.34L88.91,250.238  c-13.664-13.664-35.818-13.664-49.482,0c-13.665,13.664-13.664,35.819,0,49.482l191.832,191.832  c6.832,6.832,15.786,10.248,24.741,10.248c8.955,0,17.909-3.416,24.741-10.248l191.832-191.832  C486.238,286.057,486.238,263.902,472.573,250.238z"
   id="path1" />
<g
   id="g4">
	<path
   style="fill:#18692a;fill-opacity:1"
   d="M256,512c-12.07,0-23.417-4.7-31.953-13.235L32.214,306.933   c-8.535-8.535-13.236-19.883-13.236-31.953c0-12.071,4.7-23.418,13.236-31.954c17.619-17.619,46.287-17.618,63.907,0   l114.69,114.691V45.189C210.811,20.271,231.082,0,256,0s45.189,20.271,45.189,45.189v312.528l114.69-114.691   c17.619-17.617,46.287-17.618,63.907,0c8.535,8.536,13.236,19.883,13.236,31.954c0,12.07-4.7,23.418-13.236,31.953L287.953,498.765   C279.417,507.3,268.07,512,256,512z M64.168,250.201c-6.348,0-12.696,2.416-17.529,7.25c-4.682,4.682-7.261,10.907-7.261,17.529   c0,6.621,2.578,12.847,7.261,17.529l191.833,191.832c4.681,4.682,10.907,7.261,17.528,7.261c6.621,0,12.847-2.578,17.529-7.261   l191.832-191.832c4.682-4.682,7.261-10.908,7.261-17.529c0-6.622-2.578-12.847-7.261-17.529c-9.666-9.667-25.393-9.666-35.059,0   L298.201,389.551c-2.917,2.918-7.304,3.791-11.115,2.211c-3.811-1.579-6.296-5.297-6.296-9.423V45.189   c0-13.669-11.121-24.79-24.79-24.79c-13.669,0-24.79,11.121-24.79,24.79V382.34c0,4.125-2.486,7.844-6.296,9.423   c-3.81,1.578-8.198,0.706-11.115-2.211L81.698,257.45C76.864,252.617,70.516,250.201,64.168,250.201z"
   id="path2" />
	<path
   style="fill:#18692a;fill-opacity:1"
   d="M361.562,380.43c-2.61,0-5.221-0.995-7.212-2.987c-3.983-3.983-3.983-10.441,0-14.425l3.06-3.06   c3.983-3.983,10.441-3.983,14.425,0c3.983,3.983,3.983,10.441,0,14.425l-3.06,3.06C366.783,379.435,364.172,380.43,361.562,380.43z   "
   id="path3" />
	<path
   style="fill:#18692a;fill-opacity:1"
   d="M258.04,483.952c-2.61,0-5.221-0.995-7.212-2.987c-3.983-3.983-3.983-10.441,0-14.425l80.574-80.574   c3.983-3.983,10.441-3.983,14.425,0c3.984,3.983,3.983,10.441,0,14.425l-80.574,80.574   C263.261,482.957,260.65,483.952,258.04,483.952z"
   id="path4" />
</g>
</svg>
