<?xml version="1.0" encoding="UTF-8" standalone="no"?>
<!-- Created with Inkscape (http://www.inkscape.org/) -->

<svg
   version="1.1"
   id="svg1"
   width="420"
   height="420"
   viewBox="0 0 420 420"
   xmlns="http://www.w3.org/2000/svg"
   xmlns:svg="http://www.w3.org/2000/svg">
  <defs
     id="defs1" />
  <g
     id="g857">
    <path
       style="display:inline;fill:#0b58e1"
       d="M 212.66667,414.26329 C 70.441984,414.48618 43.588634,414.23363 37.640199,412.61717 33.775642,411.567 28.757027,409.74763 26.48772,408.57413 24.218414,407.40063 19.687936,403.97589 16.419991,400.9636 13.152047,397.95132 8.9685701,392.9106 7.1233759,389.76202 5.2781817,386.61343 2.9276913,380.87892 1.9000639,377.01866 0.34727777,371.18565 0.02897702,342.82631 0.01582517,209.14045 3.9338372e-4,52.279558 0.06592784,48.070251 2.6521666,39.807113 4.1537765,35.009409 7.4797117,28.62514 10.318833,25.090633 c 2.757975,-3.433485 6.5145,-7.401015 8.347834,-8.816735 C 20.5,14.858179 24.4,12.491318 27.333333,11.014208 30.266667,9.5370978 35.846199,7.6546287 39.732295,6.8309433 c 5.007679,-1.0614131 54.731889,-1.49761 170.719865,-1.49761 143.60502,0 164.6278,0.2535134 171.60104,2.0693345 4.37074,1.1381339 10.3468,3.4866452 13.28013,5.2189142 2.93334,1.73227 7.36784,5.151069 9.85445,7.597333 2.48661,2.446263 5.95237,6.710784 7.70167,9.476712 1.74931,2.765928 4.07643,8.525862 5.17138,12.799853 1.72232,6.72287 1.94237,29.780895 1.63165,170.97104 -0.35915,163.20015 -0.35915,163.20015 -4.22706,171.57618 -2.64395,5.72551 -6.32117,10.64732 -11.62056,15.55362 -4.65254,4.30743 -10.83681,8.42242 -15.46542,10.29063 C 380.66667,414 380.66667,414 212.66667,414.26329 Z m -2.93379,-24.98334 c 150.67972,0.0483 166.80266,-0.15029 170.66667,-2.10258 2.34691,-1.18578 5.67413,-3.43578 7.3938,-5 1.71968,-1.56422 4.11968,-4.64404 5.33334,-6.84404 2.01263,-3.64832 2.23828,-17.92886 2.56646,-162.42584 0.24683,-108.67866 -0.0848,-160.077001 -1.05611,-163.684169 -0.77875,-2.892084 -3.3313,-7.439829 -5.67232,-10.106101 -2.34101,-2.666273 -6.19649,-5.658395 -8.56773,-6.649161 C 376.85425,30.987807 346.47703,30.666667 210,30.666667 c -136.477032,0 -166.854246,0.32114 -170.396989,1.801392 -2.371237,0.990766 -6.243296,4.00177 -8.604576,6.69112 -2.361281,2.68935 -4.751907,6.528723 -5.312503,8.531941 -0.560596,2.003217 -1.019265,75.64221 -1.019265,163.64221 0,146.38145 0.187821,160.34047 2.206648,164 1.213656,2.2 3.613656,5.27705 5.333333,6.83788 1.719677,1.56083 4.926685,3.7868 7.126685,4.94661 3.583728,1.88929 21.316877,2.1143 170.399547,2.16213 z M 67.430107,354.66667 c -9.110519,0 -10.124427,-0.28121 -12.666667,-3.51315 C 52.270395,347.98413 52,345.83663 52,329.20609 c 0,-13.15063 0.477702,-18.81473 1.666667,-19.76161 0.916666,-0.73004 3.690502,-3.03642 6.164079,-5.12531 3.74552,-3.16301 4.522489,-4.75434 4.64741,-9.51848 0.130573,-4.9797 -0.45185,-6.22971 -4.497413,-9.65251 -2.556075,-2.16259 -5.39741,-4.52929 -6.314076,-5.25932 C 52.462057,278.92951 52,272.82979 52,257.88683 c 0,-20.17315 0.07939,-20.7541 3.272727,-23.94744 3.272728,-3.27272 3.272728,-3.27272 153.820193,-3.27272 150.28588,0 150.55356,0.005 154.0606,2.76344 3.51315,2.76344 3.51315,2.76344 3.51315,23.92462 0,21.16117 0,21.16117 -3.89552,23.46231 -2.14253,1.26563 -4.63435,3.68166 -5.53737,5.36897 -0.90302,1.68731 -1.59123,4.84819 -1.52937,7.02418 0.0619,2.17598 0.77148,5.18765 1.5769,6.6926 0.80542,1.50495 3.24662,3.65789 5.42488,4.78432 3.96048,2.04804 3.96048,2.04804 3.96048,23.29519 0,20.14034 -0.15201,21.38877 -2.91809,23.96576 -2.56358,2.38834 -4.66927,2.71861 -17.33333,2.71861 C 332,354.66667 332,354.66667 332,342.33333 332,330 332,330 326,330 c -6,0 -6,0 -6,12.33333 0,12.33334 0,12.33334 -7.33333,12.33334 -7.33334,0 -7.33334,0 -7.33334,-12 0,-12 0,-12 -6.66666,-12 -6.66667,0 -6.66667,0 -6.66667,12 0,12 0,12 -7.33333,12 -7.33334,0 -7.33334,0 -7.33334,-11.86575 0,-11.86574 0,-11.86574 -6.09402,-12.35041 -3.35172,-0.26658 -6.35172,-0.22699 -6.66667,0.088 -0.31495,0.31495 -0.57264,5.87264 -0.57264,12.35042 0,11.77778 0,11.77778 -10,11.77778 -10,0 -10,0 -10,-9.39394 0,-8.19604 -0.41733,-9.81128 -3.27273,-12.66667 -2.34752,-2.34752 -4.73189,-3.27273 -8.43425,-3.27273 -3.67131,0 -5.99852,0.89095 -8.0606,3.08594 -2.42128,2.57733 -2.89909,4.66497 -2.89909,12.66666 0,9.58074 0,9.58074 -10,9.58074 -10,0 -10,0 -10,-11.86575 0,-11.86574 0,-11.86574 -6,-12.34294 -6,-0.4772 -6,-0.4772 -6,11.86575 0,12.34294 0,12.34294 -8,12.34294 -8,0 -8,0 -8,-11.86575 0,-11.86574 0,-11.86574 -6,-12.34294 -6,-0.4772 -6,-0.4772 -6,11.86575 0,12.34294 0,12.34294 -7.66666,12.346 -7.66667,0.003 -7.66667,0.003 -7.23871,-12 0.42796,-12.00306 0.42796,-12.00306 -6.33333,-12.00306 -6.7613,0 -6.7613,0 -6.7613,12 0,12 0,12 -7.33333,12 -7.33333,0 -7.33333,0 -7.33333,-11.77778 0,-6.47778 -0.25769,-12.03547 -0.57264,-12.35042 -0.31496,-0.31495 -3.31496,-0.35454 -6.66667,-0.088 -6.09403,0.48467 -6.09403,0.48467 -6.09403,12.35041 0,11.86575 0,11.86575 -7.33333,11.86575 -7.333333,0 -7.333333,0 -7.333333,-12 0,-12 0,-12 -6.666667,-12 -6.666667,0 -6.666667,0 -6.666667,12 0,12 0,12 -9.903226,12 z m 37.004893,-52 c 14.27793,0 17.78735,-0.39125 19.79335,-2.20665 2.15598,-1.95114 2.43832,-4.52498 2.43832,-22.22835 0,-16.7593 -0.35956,-20.419 -2.20665,-22.46002 -1.92247,-2.1243 -4.44173,-2.43832 -19.56168,-2.43832 -14.27794,0 -17.787352,0.39125 -19.793352,2.20665 -2.155987,1.95114 -2.438321,4.52498 -2.438321,22.22835 0,16.7593 0.359558,20.419 2.20665,22.46002 1.922465,2.1243 4.441731,2.43832 19.561683,2.43832 z m 69.67641,0 c 14.31142,0 18.09906,-0.40095 19.79335,-2.09524 1.71975,-1.71975 2.09524,-5.7033 2.09524,-22.22835 0,-16.86297 -0.35842,-20.52915 -2.20665,-22.57143 -1.92246,-2.1243 -4.44173,-2.43832 -19.56168,-2.43832 -14.27794,0 -17.78735,0.39125 -19.79335,2.20665 -2.15599,1.95114 -2.43832,4.52498 -2.43832,22.22835 0,16.7593 0.35956,20.419 2.20665,22.46002 1.92664,2.12891 4.45244,2.43832 19.90476,2.43832 z m 70.09524,0 c 15.34891,0 17.40349,-0.27681 19.79335,-2.66667 2.41763,-2.41763 2.66667,-4.44444 2.66667,-21.70333 0,-15.0717 -0.43231,-19.65386 -2.07561,-22 -1.96891,-2.81101 -2.99211,-2.96334 -19.90476,-2.96334 -14.43055,0 -18.22855,0.3994 -19.9244,2.09524 -1.71975,1.71975 -2.09523,5.7033 -2.09523,22.22835 0,16.86297 0.35841,20.52915 2.20665,22.57143 1.91959,2.12112 4.4346,2.43832 19.33333,2.43832 z m 69.56168,0 c 14.27794,0 17.78735,-0.39125 19.79335,-2.20665 2.15599,-1.95114 2.43832,-4.52498 2.43832,-22.22835 0,-16.7593 -0.35956,-20.419 -2.20665,-22.46002 -1.92246,-2.1243 -4.44173,-2.43832 -19.56168,-2.43832 -14.27794,0 -17.78735,0.39125 -19.79335,2.20665 -2.15599,1.95114 -2.43832,4.52498 -2.43832,22.22835 0,16.7593 0.35956,20.419 2.20665,22.46002 1.92246,2.1243 4.44173,2.43832 19.56168,2.43832 z M 86.430737,200 c -1.303094,0 -3.360397,-1.51266 -4.571784,-3.36147 -1.523973,-2.32588 -1.983301,-4.99589 -1.490946,-8.66667 0.710493,-5.29712 0.704578,-5.30519 -3.888822,-5.30519 -3.106594,0 -5.66309,-1.0627 -7.873124,-3.27273 -2.243979,-2.24398 -3.272728,-4.7587 -3.272728,-8 0,-4.72727 0,-4.72727 -6.4,-4.72727 -3.52,0 -7.12,-0.72 -8,-1.6 -0.88,-0.88 -1.6,-2.95889 -1.6,-4.61976 0,-1.66086 1.160555,-3.64086 2.579012,-4.4 1.418456,-0.75913 5.018456,-1.38024 8,-1.38024 5.306526,0 5.420988,-0.0985 5.420988,-4.66667 0,-4.56813 -0.114462,-4.66667 -5.420988,-4.66667 -2.981544,0 -6.581544,-0.62111 -8,-1.38024 -1.463413,-0.7832 -2.579012,-2.78156 -2.579012,-4.61976 0,-1.8382 1.115599,-3.83656 2.579012,-4.61975 1.418456,-0.75914 5.018456,-1.38025 8,-1.38025 5.420988,0 5.420988,0 5.420988,-5.33333 0,-5.33333 0,-5.33333 -6.4,-5.33333 -3.52,0 -7.12,-0.72 -8,-1.6 -0.88,-0.88 -1.6,-2.64598 -1.6,-3.9244 0,-1.27842 1.333504,-3.25842 2.963342,-4.4 1.629838,-1.14158 5.229838,-2.0756 8,-2.0756 4.987213,0 5.036658,-0.0524 5.036658,-5.33334 0,-5.33333 0,-5.33333 -6.4,-5.33333 -3.52,0 -7.12,-0.72 -8,-1.6 -0.88,-0.88 -1.6,-2.637143 -1.6,-3.904762 0,-1.267619 0.942857,-3.247619 2.095238,-4.4 1.273938,-1.273937 4.409813,-2.095238 8,-2.095238 5.691543,0 5.904762,-0.146628 5.904762,-4.060606 0,-2.533483 1.230816,-5.291422 3.272728,-7.333333 2.041911,-2.041912 4.79985,-3.272728 7.333333,-3.272728 3.859428,0 4.060606,-0.268576 4.060606,-5.420988 0,-2.981544 0.583332,-6.510955 1.296293,-7.843135 0.712961,-1.33218 2.256427,-2.790584 3.429923,-3.240896 1.173496,-0.450313 3.290165,-0.199792 4.703707,0.556713 C 91.486477,58.485661 92,60.216378 92,66.046912 c 0,7.286421 0,7.286421 5.333333,7.286421 5.333337,0 5.333337,0 5.333337,-6.571428 0,-4.196248 0.7573,-7.328733 2.09523,-8.666667 C 105.91429,56.942857 107.28078,56 107.79856,56 c 0.51778,0 2.27493,0.934022 3.90477,2.075605 2.38266,1.668885 2.96334,3.367142 2.96334,8.666667 0,6.591061 0,6.591061 4.66666,6.591061 4.56814,0 4.66667,-0.114462 4.66667,-5.420988 0,-2.981544 0.58333,-6.510955 1.29629,-7.843135 0.71296,-1.33218 2.25643,-2.790584 3.42993,-3.240896 1.17349,-0.450313 3.29016,-0.199792 4.7037,0.556713 2.05656,1.100634 2.57008,2.831351 2.57008,8.661885 0,7.286421 0,7.286421 6,7.286421 6,0 6,0 6,-7.286421 0,-5.830534 0.51352,-7.561251 2.57008,-8.661885 1.41354,-0.756505 3.53021,-1.007026 4.7037,-0.556713 1.1735,0.450312 2.71697,1.908716 3.42993,3.240896 0.71296,1.33218 1.29629,4.861591 1.29629,7.843135 0,4.844606 0.34282,5.420988 3.22428,5.420988 1.77336,0 4.19555,0.372709 5.38265,0.828242 1.1871,0.455533 3.03617,2.525737 4.10905,4.600454 1.07288,2.074716 1.95069,5.002007 1.95069,6.505091 0,2.344913 0.84104,2.73288 5.92439,2.73288 4.61061,0 6.38468,0.657146 8,2.963342 1.14158,1.629838 2.07561,3.38698 2.07561,3.904762 0,0.517781 -0.94286,1.884277 -2.09524,3.036658 -1.27394,1.273937 -4.40981,2.095238 -8,2.095238 -5.90476,0 -5.90476,0 -5.90476,5.33333 0,5.28873 0.0425,5.33334 5.07849,5.33334 2.79317,0 6.14464,0.77958 7.44772,1.73241 1.57622,1.15257 2.21937,3.04925 1.9215,5.66667 -0.42553,3.73929 -0.79459,3.95422 -7.44771,4.33726 -7,0.40302 -7,0.40302 -7,5.59361 0,5.1906 0,5.1906 6.17975,5.59699 4.4534,0.29286 6.68332,1.16861 7.98236,3.13489 1.53386,2.32171 1.49578,3.16657 -0.25536,5.66667 -1.5963,2.27905 -3.38698,2.93816 -7.98236,2.93816 -5.92439,0 -5.92439,0 -5.92439,5.14844 0,4.76248 0.24804,5.10102 3.3087,4.51594 1.81978,-0.34787 4.80246,-0.25759 6.62818,0.20064 1.82571,0.45822 3.95791,2.02605 4.73821,3.48406 1.00397,1.87594 1.00151,3.43051 -0.008,5.31759 -1.12494,2.10198 -2.79176,2.66667 -7.87135,2.66667 -6.4442,0 -6.4442,0 -7.20243,5.65304 -0.47305,3.52689 -1.84833,6.53574 -3.6566,8 -1.59411,1.29082 -4.6319,2.34696 -6.75066,2.34696 -3.6471,0 -3.85229,0.30378 -3.85229,5.70332 0,3.13683 -0.93402,7.03683 -2.07561,8.66667 -1.14158,1.62984 -3.12158,2.96334 -4.4,2.96334 -1.27841,0 -3.04439,-0.72 -3.92439,-1.6 -0.88,-0.88 -1.6,-4.78 -1.6,-8.66667 0,-7.06666 0,-7.06666 -6,-7.06666 -6,0 -6,0 -6,7.06666 0,3.88667 -0.72,7.78667 -1.6,8.66667 -0.88,0.88 -2.64598,1.6 -3.92439,1.6 -1.27842,0 -3.25842,-1.3335 -4.4,-2.96334 C 124.93402,195.40682 124,191.50682 124,188.36999 c 0,-5.6292 -0.0606,-5.70332 -4.66667,-5.70332 -4.66666,0 -4.66666,0 -4.66666,6.57143 0,4.19624 -0.75731,7.32873 -2.09524,8.66666 -1.15238,1.15238 -2.90953,2.09524 -3.90476,2.09524 -0.99524,0 -2.75238,-0.94286 -3.90477,-2.09524 -1.33793,-1.33793 -2.09523,-4.47042 -2.09523,-8.66666 0,-6.57143 0,-6.57143 -5.333337,-6.57143 C 92,182.66667 92,182.66667 92,189.73333 92,193.62 91.28,197.52 90.4,198.4 c -0.88,0.88 -2.666168,1.6 -3.969263,1.6 z m 32.376493,-33.33333 c 23.12954,0 30.12217,-0.41213 33.09741,-1.95069 2.07471,-1.07288 4.14492,-2.92195 4.60045,-4.10905 0.45553,-1.1871 0.82824,-15.87583 0.82824,-32.64163 0,-30.301566 -0.0192,-30.505562 -3.21789,-34.224282 C 150.89756,90 150.89756,90 120.14575,90 89.393939,90 89.393939,90 85.69697,93.69697 82,97.393939 82,97.393939 82,128.81241 c 0,31.41848 0,31.41848 3.741018,34.63637 3.709404,3.19069 3.988841,3.21789 33.066212,3.21789 z m 1.41252,-16 c -14.57092,0 -21.510628,-0.49088 -22.61975,-1.6 C 96.501674,147.96834 96,141.36296 96,128 c 0,-13.36296 0.501674,-19.96834 1.6,-21.06667 1.104646,-1.10464 7.81257,-1.59368 21.66667,-1.57958 11.03666,0.0112 20.96666,0.58882 22.06666,1.28352 1.5828,0.99963 2.09552,5.13711 2.45791,19.83447 0.29825,12.09605 -0.0668,19.55175 -1.04691,21.38314 -1.43302,2.67762 -2.50781,2.81179 -22.52458,2.81179 z m 120.9869,49.3203 c -1.16968,0.007 -3.11968,-1.08421 -4.33333,-2.42529 -1.55153,-1.71442 -2.20665,-4.8812 -2.20665,-10.66667 0,-8.22834 0,-8.22834 -7.25773,-8.22834 -5.98844,0 -7.62073,-0.51826 -9.33333,-2.96334 C 216.28147,173.14184 216,165.54769 216,119.70333 216,68.444444 216.0894,66.577281 218.66667,64 c 2.59938,-2.599384 4.44444,-2.666667 73.12668,-2.666667 66.5672,0 70.58193,0.134714 72.66667,2.438321 1.98616,2.194682 2.20665,8.582054 2.20665,63.924396 0,61.48607 0,61.48607 -2.96334,63.56168 -2.55806,1.79173 -10.01651,2.0756 -54.53428,2.0756 -51.57093,0 -51.57093,0 -58.70332,3.32031 -3.92282,1.82617 -8.0894,3.32617 -9.25908,3.33333 z m 52.31957,-24.07616 c 3.40609,0.049 10.00609,-1.1154 14.66667,-2.58767 4.66058,-1.47227 10.72925,-4.39666 13.48595,-6.49864 2.75669,-2.10198 6.86636,-6.1474 9.1326,-8.98981 2.26624,-2.84241 5.30124,-7.47347 6.74445,-10.29123 1.44321,-2.81776 3.17961,-8.51776 3.85866,-12.66667 0.81157,-4.95853 0.74293,-10.28482 -0.20031,-15.54346 -0.78923,-4.4 -3.27476,-11.461 -5.5234,-15.69112 -2.24865,-4.230116 -6.37744,-9.759092 -9.1751,-12.286613 -2.79767,-2.52752 -8.2582,-6.263631 -12.13453,-8.30247 -6.26839,-3.296992 -8.4488,-3.707688 -19.71454,-3.713387 -11.20101,-0.0057 -13.55215,0.428413 -20.31924,3.75143 -4.20892,2.06681 -10.31875,6.424014 -13.57741,9.682674 -3.25867,3.258661 -7.5597,9.367636 -9.55785,13.575496 -2.51368,5.29347 -3.82311,10.5589 -4.25,17.08984 -0.42623,6.52077 0.0794,11.8345 1.63522,17.1865 1.23871,4.26103 3.21725,9.3134 4.39674,11.22749 1.17949,1.91409 4.58833,6.07968 7.5752,9.25686 2.98687,3.17718 7.83067,7.02603 10.764,8.553 2.93334,1.52697 7.73334,3.53732 10.66667,4.46744 2.93333,0.93013 8.12013,1.73128 11.52622,1.78034 z m -4.5532,-9.34941 c -2.3685,-0.0579 -5.20635,-0.43618 -6.30635,-0.84065 -1.1,-0.40446 -3.05,-1.65008 -4.33334,-2.76805 C 277.05,161.83473 276,159.69586 276,158.19964 c 0,-1.49621 1.5847,-4.37446 3.52156,-6.39611 3.23906,-3.38085 3.38576,-4.0036 1.82864,-7.76282 -1.64774,-3.97798 -1.86848,-4.06381 -8.26839,-3.21483 -4.34648,0.57658 -7.65778,0.29303 -9.76831,-0.83649 -1.75606,-0.93982 -4.11999,-3.66258 -5.25317,-6.05058 C 256.92715,131.55081 256,126.67117 256,123.09517 c 0,-3.7267 0.88591,-7.76664 2.07561,-9.46516 1.30101,-1.85746 3.46302,-2.96334 5.79335,-2.96334 2.04475,0 4.80372,1.2 6.13104,2.66666 1.32732,1.46667 3.72732,2.66667 5.33333,2.66667 1.60602,0 3.93008,-1.11609 5.16458,-2.48019 1.7848,-1.97218 1.96368,-3.21894 0.87332,-6.0868 C 280.61705,105.44937 280,102.31931 280,100.4773 c 0,-1.898398 1.63377,-4.982863 3.77174,-7.120833 2.07445,-2.074455 5.99873,-4.38664 8.72061,-5.138187 2.72188,-0.751548 7.02108,-1.030178 9.55377,-0.619179 2.53269,0.411 6.10842,2.140689 7.94605,3.843754 1.83764,1.703065 3.33737,4.475131 3.33273,6.160146 -0.006,2.002805 -1.39059,3.850159 -4,5.334989 -2.27625,1.29525 -3.99157,3.38045 -3.99157,4.85228 0,1.41954 1.05,3.87133 2.33334,5.44844 2.04592,2.51427 2.849,2.68694 6.51983,1.4018 3.27427,-1.1463 5.21604,-1.03549 8.91144,0.50854 2.59872,1.08582 5.61336,3.69221 6.6992,5.79199 1.08583,2.09977 2.37426,5.95005 2.86317,8.55616 0.57167,3.04728 0.18005,6.43496 -1.09731,9.49211 -1.10282,2.63944 -3.29412,5.16883 -4.92687,5.68705 -2.0127,0.6388 -4.1378,0.0482 -6.7344,-1.87152 C 317.81517,141.26218 314.65715,140 312.88392,140 c -1.77324,0 -3.95378,0.87925 -4.84565,1.95389 -1.04618,1.26056 -1.30633,3.81982 -0.73316,7.21241 0.61065,3.61438 0.24886,6.49532 -1.15712,9.21418 -1.27317,2.46204 -4.08889,4.77323 -7.45708,6.12092 -2.97635,1.1909 -7.3494,2.1179 -9.71789,2.06 z"
       id="path857" />
  </g>
</svg>
